<svg width="21" height="21" viewBox="0 0 21 21" fill="none" xmlns="http://www.w3.org/2000/svg">
<path d="M18.4667 4.66667V4.86667H18.6667C19.8506 4.86667 20.8 5.82647 20.8 7V18.6667C20.8 19.8512 19.8512 20.8 18.6667 20.8H4.66667C2.19879 20.8 0.2 18.8012 0.2 16.3333V4.66667C0.2 2.19879 2.19879 0.2 4.66667 0.2H16.3333C17.5172 0.2 18.4667 1.15981 18.4667 2.33333V4.66667ZM16.3333 4.86667H16.5333V4.66667V2.33333V2.13333H16.3333H4.66667C3.27288 2.13333 2.13333 3.27288 2.13333 4.66667V5.29667V5.64275L2.43319 5.46995C3.0931 5.08967 3.85223 4.86667 4.66667 4.86667H16.3333ZM18.6667 18.8667H18.8667V18.6667V7V6.8H18.6667H4.66667C3.27288 6.8 2.13333 7.93954 2.13333 9.33333V16.3333C2.13333 17.7394 3.27353 18.8667 4.66667 18.8667H18.6667ZM16.1333 12.8333C16.1333 13.6912 15.4412 14.3833 14.5833 14.3833C13.7255 14.3833 13.0333 13.6912 13.0333 12.8333C13.0333 11.9755 13.7255 11.2833 14.5833 11.2833C15.4412 11.2833 16.1333 11.9755 16.1333 12.8333Z" fill="white" stroke="#023047" stroke-width="0.4"/>
</svg>
