<svg width="26" height="23" viewBox="0 0 26 23" fill="none" xmlns="http://www.w3.org/2000/svg">
<path d="M13.3333 10.3333V9.75M18 10.3333V9.75M8.66663 10.3333V9.75M3.37463 17.1327C1.66663 15.7665 1.66663 14.7328 1.66663 10.3333C1.66663 5.93383 1.66663 3.7335 3.37463 2.36733C5.08496 1 7.83363 1 13.3333 1C18.833 1 21.5828 1 23.2908 2.36733C25 3.7335 25 5.93383 25 10.3333C25 14.7328 25 15.7665 23.2908 17.1327C21.584 18.5 18.833 18.5 13.3333 18.5C10.405 18.5 8.89996 20.5277 6.33329 22V18.2527C5.05696 18.0625 4.11779 17.7277 3.37463 17.1327Z" stroke="white" stroke-width="1.75" stroke-linecap="round" stroke-linejoin="round"/>
</svg>
