<svg width="21" height="21" viewBox="0 0 21 21" fill="none" xmlns="http://www.w3.org/2000/svg">
<path d="M7.83333 0.291626C9.84456 0.291626 11.7734 1.09058 13.1956 2.51273C14.6177 3.93488 15.4167 5.86373 15.4167 7.87496C15.4167 9.75329 14.7283 11.48 13.5967 12.81L13.9117 13.125H14.8333L20.6667 18.9583L18.9167 20.7083L13.0833 14.875V13.9533L12.7683 13.6383C11.4383 14.77 9.71167 15.4583 7.83333 15.4583C5.82211 15.4583 3.89326 14.6593 2.47111 13.2372C1.04896 11.815 0.25 9.88618 0.25 7.87496C0.25 5.86373 1.04896 3.93488 2.47111 2.51273C3.89326 1.09058 5.82211 0.291626 7.83333 0.291626ZM7.83333 2.62496C4.91667 2.62496 2.58333 4.95829 2.58333 7.87496C2.58333 10.7916 4.91667 13.125 7.83333 13.125C10.75 13.125 13.0833 10.7916 13.0833 7.87496C13.0833 4.95829 10.75 2.62496 7.83333 2.62496Z" fill="#333333"/>
</svg>
